<svg width="53" height="27" viewBox="0 0 53 27" fill="none" xmlns="http://www.w3.org/2000/svg">
<path d="M26.3708 26.3199C23.4308 26.3199 20.6209 25.5299 18.2209 24.0399H14.4109C13.1409 24.0399 12.0909 23.1499 11.9909 22.0099C11.2709 21.9699 10.6109 21.6299 10.1909 21.0999H5.57086C4.30086 21.0999 3.25085 20.2099 3.14085 19.0699C1.88085 18.9899 0.880859 18.0299 0.880859 16.8699V9.88995C0.880859 8.72995 1.88085 7.76994 3.14085 7.68994C3.24085 6.55994 4.29086 5.65991 5.57086 5.65991H10.1909C10.6109 5.11991 11.2709 4.78994 11.9909 4.74994C12.0909 3.61994 13.1409 2.71991 14.4109 2.71991H18.2209C20.6209 1.22991 23.4408 0.439941 26.3708 0.439941C29.3008 0.439941 32.1209 1.22991 34.5209 2.71991H38.3209C39.5909 2.71991 40.6409 3.60994 40.7509 4.74994C41.4709 4.78994 42.1309 5.12991 42.5509 5.65991H47.1709C48.4409 5.65991 49.4909 6.54994 49.5909 7.68994C50.8508 7.76994 51.8509 8.72995 51.8509 9.88995V16.8699C51.8509 18.0399 50.8508 18.9899 49.5909 19.0699C49.4909 20.1999 48.4409 21.0999 47.1709 21.0999H42.5509C42.1309 21.6299 41.4709 21.9699 40.7509 22.0099C40.6509 23.1399 39.6009 24.0399 38.3209 24.0399H34.5209C32.1209 25.5299 29.3008 26.3199 26.3708 26.3199Z" fill="white"/>
<path d="M26.3706 0.709961C29.3006 0.709961 32.0706 1.49993 34.4506 2.98993H38.3306C39.5406 2.98993 40.5106 3.86995 40.5106 4.94995C40.5106 4.97995 40.5406 5.00995 40.5806 5.00995C41.3606 5.00995 42.0406 5.37993 42.4306 5.92993H47.1706C48.3706 5.92993 49.3506 6.80995 49.3506 7.88995C49.3506 7.91995 49.3806 7.94995 49.4206 7.94995C50.6306 7.94995 51.6006 8.82991 51.6006 9.90991V16.89C51.6006 17.97 50.6206 18.8499 49.4206 18.8499C49.3806 18.8499 49.3506 18.8799 49.3506 18.9099C49.3506 19.9899 48.3706 20.8699 47.1706 20.8699H42.4306C42.0406 21.4199 41.3606 21.7899 40.5806 21.7899C40.5406 21.7899 40.5106 21.8199 40.5106 21.8499C40.5106 22.9299 39.5306 23.8099 38.3306 23.8099H34.4506C32.0706 25.2999 29.3006 26.09 26.3706 26.09C23.4406 26.09 20.6606 25.2999 18.2906 23.8099H14.4106C13.2006 23.8099 12.2306 22.9299 12.2306 21.8499C12.2306 21.8099 12.2006 21.7899 12.1606 21.7899C11.3806 21.7899 10.7006 21.4199 10.3106 20.8699H5.57063C4.36063 20.8699 3.39062 19.9899 3.39062 18.9099C3.39062 18.8799 3.36063 18.8499 3.32063 18.8499C2.12063 18.8499 1.14062 17.97 1.14062 16.89V9.90991C1.14062 8.82991 2.12063 7.94995 3.32063 7.94995C3.36063 7.94995 3.39062 7.91995 3.39062 7.88995C3.39062 6.80995 4.37063 5.92993 5.57063 5.92993H10.3106C10.6906 5.37993 11.3806 5.00995 12.1606 5.00995C12.2006 5.00995 12.2306 4.97995 12.2306 4.94995C12.2306 3.86995 13.2106 2.98993 14.4106 2.98993H18.2906C20.6706 1.49993 23.4506 0.709961 26.3706 0.709961ZM26.3706 0.209961C23.4106 0.209961 20.5706 0.999929 18.1506 2.48993H14.4206C13.0906 2.48993 11.9906 3.37992 11.7806 4.53992C11.1106 4.62992 10.5006 4.94993 10.0806 5.42993H5.58063C4.25063 5.42993 3.15062 6.31992 2.93062 7.47992C1.64062 7.64992 0.640625 8.67991 0.640625 9.90991V16.89C0.640625 18.12 1.64062 19.1499 2.93062 19.3199C3.14062 20.4799 4.25063 21.3699 5.58063 21.3699H10.0806C10.5006 21.8599 11.1106 22.1699 11.7806 22.2599C11.9906 23.4199 13.1006 24.3099 14.4306 24.3099H18.1606C20.5906 25.7999 23.4306 26.59 26.3806 26.59C29.3306 26.59 32.1806 25.7999 34.6006 24.3099H38.3306C39.6606 24.3099 40.7606 23.4199 40.9806 22.2599C41.6506 22.1699 42.2506 21.8499 42.6806 21.3699H47.1806C48.5106 21.3699 49.6106 20.4799 49.8206 19.3199C51.1106 19.1499 52.1106 18.12 52.1106 16.89V9.90991C52.1106 8.67991 51.1106 7.64992 49.8206 7.47992C49.6106 6.31992 48.5006 5.42993 47.1806 5.42993H42.6806C42.2506 4.93993 41.6506 4.62992 40.9806 4.53992C40.7706 3.37992 39.6606 2.48993 38.3306 2.48993H34.6006C32.1706 0.999929 29.3306 0.209961 26.3806 0.209961H26.3706Z" fill="#2A5D73"/>
</svg>
