<svg width="399" height="59" viewBox="0 0 399 59" fill="none" xmlns="http://www.w3.org/2000/svg">
<path d="M336.305 14.3844C336.305 14.3844 339.028 14.3544 341.21 13.1136C343.392 11.8728 345.705 16.0755 347.166 15.0849C347.166 15.0849 345.885 19.9979 342.461 17.9066C340.749 16.866 340.109 16.1855 336.315 14.3744L336.305 14.3844Z" fill="#A97C50" stroke="#A97C50" stroke-width="0.25"/>
<path d="M336.305 44.1731C336.305 44.1731 339.028 44.203 341.21 45.4438C343.392 46.6846 345.705 42.482 347.166 43.4626C347.166 43.4626 345.885 38.5495 342.461 40.6408C340.749 41.6815 340.109 42.3619 336.315 44.1731H336.305Z" fill="#A97C50" stroke="#A97C50" stroke-width="0.25"/>
<path d="M353.033 29.2636C359.059 21.6889 365.045 14.0943 373.945 14.0943C379.661 14.0943 381.493 21.2587 381.533 23.7202C381.583 26.8021 379.371 28.6132 377.679 28.6132C376.307 28.6132 374.646 27.5826 374.646 25.4013C374.646 23.7302 375.316 23.1399 376.187 23.1399C376.508 23.1399 377.118 23.5601 377.148 24.4006C377.168 24.971 376.888 25.7515 376.277 25.9116C376.337 25.9216 377.759 26.592 378.64 25.6014C379.07 25.1111 379.29 24.4207 379.29 23.5201C379.29 20.4682 377.419 17.2262 373.945 17.2262C372.253 17.2262 370.792 18.0067 369.821 19.4176C369.06 20.5283 368.649 21.9791 368.649 23.5501C368.069 23.1298 366.988 22.5595 365.346 22.5595C363.934 22.5595 362.303 24.1705 360.721 25.7315C359.44 27.0023 358.228 29.1836 357.377 29.2636C358.228 29.3437 359.44 31.5251 360.721 32.7959C362.303 34.3568 363.934 35.9678 365.346 35.9678C366.988 35.9678 368.069 35.3975 368.649 34.9772C368.649 36.5582 369.06 37.9991 369.821 39.1098C370.792 40.5206 372.253 41.3011 373.945 41.3011C377.419 41.3011 379.29 38.0591 379.29 35.0072C379.29 34.1066 379.07 33.4163 378.64 32.9259C377.769 31.9453 376.337 32.6057 376.277 32.6257C376.888 32.7858 377.168 33.5663 377.148 34.1367C377.118 34.9772 376.498 35.3974 376.187 35.3974C375.316 35.3974 374.646 34.8171 374.646 33.1461C374.646 30.9647 376.317 29.934 377.679 29.934C379.371 29.934 381.583 31.7452 381.533 34.8271C381.493 37.2886 379.661 44.453 373.945 44.453C365.045 44.453 359.259 37.1085 353.243 29.5338C348.578 23.6602 343.373 16.916 336.155 14.4445C338.838 14.1943 341.851 13.3938 343.383 11.5426C344.093 10.6721 344.454 9.63147 344.454 8.43073C344.454 7.22998 344.133 6.16933 343.513 5.42887C342.862 4.64838 341.901 4.26817 340.94 4.38825C338.918 4.65841 338.498 6.30946 338.498 7.66029C338.498 9.37135 339.158 10.5321 340.76 10.5321C341.21 10.5321 342.071 10.1618 342.422 9.30126C342.602 8.84098 342.792 8.13055 342.422 7.12993C342.161 6.46953 341.561 6.2794 341.781 7.56019C341.961 8.0505 341.981 8.46075 341.811 8.81097C341.621 9.22122 341.31 9.55142 340.73 9.55142C339.278 9.55142 339.238 8.10051 339.238 7.67025C339.238 6.24937 339.809 5.5089 341.03 5.3488C341.791 5.24874 342.542 5.54896 343.042 6.13933C343.513 6.68967 343.743 7.47013 343.743 8.43073C343.743 9.39132 343.463 10.1618 342.902 10.8423C340.72 13.5039 334.894 13.664 332.141 13.5639C331.44 13.4839 330.609 13.4838 329.868 13.4838C326.675 13.4838 323.572 14.6046 320.839 16.2256C321.43 14.9548 321.7 13.4138 321.7 11.5827C321.7 7.97047 319.437 6.04925 317.796 6.04925C315.954 6.04925 314.612 7.6903 314.612 9.96171C314.612 12.113 315.934 13.3938 317.215 13.3938C317.926 13.3938 318.617 12.6934 318.847 11.7328C319.087 10.7822 318.817 9.83161 318.146 9.19121C317.766 8.99109 317.285 9.10117 317.726 9.96171C318.286 10.502 318.236 11.1224 318.166 11.4326C318.026 12.0029 317.616 12.4332 317.215 12.4332C316.304 12.4332 315.333 11.5627 315.333 9.96171C315.333 8.22063 316.344 7.00987 317.786 7.00987C318.897 7.00987 320.969 8.3507 320.969 11.5827C320.969 14.5345 320.128 16.4557 319.447 17.0261C314.192 20.5683 310.308 25.6514 310.258 25.7315L310.929 26.3718C311.019 26.2518 319.948 14.4344 329.868 14.4344C339.789 14.4344 346.706 22.4895 352.813 30.1642C353.043 30.4544 353.373 30.9147 353.613 31.2048C354.564 32.1955 357.057 42.5019 355.576 45.7439C355.195 46.5844 354.584 47.0046 353.724 47.0046C353.213 47.0046 352.843 46.7945 352.582 46.3742C351.862 45.1835 352.012 42.5719 352.022 42.5519C351.982 42.6119 350.81 43.9728 350.69 45.964C350.61 47.3649 351.021 48.8057 351.802 49.8264C352.602 50.867 353.704 51.3473 354.905 51.2072C357.297 50.907 358.138 48.9959 358.429 47.585C358.429 47.645 358.429 47.6751 358.429 47.7351C358.549 50.1166 359.47 51.2072 361.982 51.8977L362.162 51.9477L362.273 51.7476C362.323 51.6375 363.314 49.7864 363.314 47.9252C363.314 47.1548 363.143 46.3843 362.683 45.7439C362.603 45.6338 362.553 45.5538 362.523 45.4837C362.593 45.5237 362.663 45.5837 362.743 45.6938C363.664 47.0446 371.472 50.1466 376.848 47.2748C380.712 45.2135 382.704 38.3092 382.013 33.8265C381.713 31.1248 379.611 29.4138 377.889 29.2937C379.621 29.1736 381.713 27.4625 382.013 24.7609C382.704 20.2781 380.702 13.3738 376.848 11.3125C371.472 8.44074 363.664 11.5427 362.743 12.8935C362.673 13.0036 362.593 13.0636 362.523 13.1036C362.563 13.0336 362.603 12.9536 362.683 12.8435C363.143 12.1931 363.314 11.4226 363.314 10.6622C363.314 8.801 362.333 6.94984 362.273 6.83978L362.162 6.63964L361.982 6.68966C359.47 7.38009 358.539 8.47074 358.429 10.8522C358.429 10.9122 358.429 10.9423 358.429 11.0023C358.138 9.59145 357.297 7.68029 354.905 7.39011C353.704 7.24001 352.602 7.73032 351.802 8.77097C351.021 9.7916 350.6 11.2325 350.69 12.6333C350.81 14.6246 351.982 15.9854 352.022 16.0454C352.022 16.0154 351.862 13.4139 352.582 12.2231C352.843 11.7929 353.213 11.5927 353.724 11.5927C354.584 11.5927 355.185 12.0029 355.576 12.8535C357.047 16.1055 354.554 26.4019 353.613 27.4025C353.383 27.6927 352.783 28.4031 352.552 28.6933L353.063 29.3137L353.033 29.2636Z" fill="white" stroke="#A97C50" stroke-width="0.25"/>
<path d="M352.541 29.834C348.056 35.4775 342.991 41.7514 336.144 44.1029C338.827 44.363 341.84 45.1535 343.371 47.0046C344.082 47.8652 344.443 48.9159 344.443 50.1166C344.443 51.3173 344.122 52.378 343.502 53.1084C342.851 53.8889 341.89 54.2691 340.929 54.1491C338.907 53.8789 338.486 52.2179 338.486 50.877C338.486 49.156 339.147 48.0053 340.749 48.0053C341.199 48.0053 342.06 48.3755 342.41 49.2361C342.591 49.6963 342.781 50.4068 342.41 51.4074C342.15 52.0678 341.55 52.2579 341.77 50.9771C341.95 50.4968 341.97 50.0766 341.8 49.7364C341.61 49.3261 341.299 48.9959 340.719 48.9959C339.267 48.9959 339.227 50.4468 339.227 50.877C339.227 52.2979 339.798 53.0384 341.019 53.1985C341.78 53.2985 342.531 52.9984 343.031 52.398C343.502 51.8376 343.732 51.0672 343.732 50.1066C343.732 49.146 343.452 48.3755 342.891 47.6951C340.709 45.0434 334.882 44.8733 332.13 44.9734C331.429 45.0535 330.598 45.0535 329.857 45.0535C326.664 45.0535 323.561 43.9327 320.828 42.3117C321.418 43.5725 321.689 45.1235 321.689 46.9546C321.689 50.5668 319.426 52.4881 317.785 52.4881C315.943 52.4881 314.601 50.847 314.601 48.5856C314.601 46.3242 315.923 45.1535 317.204 45.1535C317.915 45.1535 318.605 45.8539 318.836 46.8145C319.076 47.7651 318.806 48.7157 318.135 49.3561C317.754 49.5562 317.274 49.4462 317.714 48.5856C318.275 48.0453 318.225 47.4349 318.155 47.1147C318.015 46.5444 317.604 46.1141 317.204 46.1141C316.293 46.1141 315.322 46.9846 315.322 48.5956C315.322 50.3367 316.333 51.5475 317.774 51.5475C318.886 51.5475 320.958 50.2066 320.958 46.9746C320.958 44.0228 320.117 42.1116 319.436 41.5313C314.181 37.9891 310.277 32.8959 310.227 32.8158L310.897 32.1955C310.987 32.3155 319.937 44.1129 329.857 44.1129C339.778 44.1129 346.204 36.6583 352.081 29.2837L352.551 29.834H352.541Z" fill="white" stroke="#A97C50" stroke-width="0.25"/>
<path d="M390.881 49.5863C390.831 50.5368 391.081 51.7676 391.362 52.2879C391.682 52.8883 392.263 53.2486 392.973 53.2486C393.774 53.2486 394.485 52.428 394.765 51.1673C395.136 49.5062 394.785 46.8946 392.553 44.9834C390.13 42.9021 387.998 43.7826 387.117 44.313C387.037 42.822 386.637 40.1404 384.244 40.2305C382.532 40.2905 382.112 42.3018 382.132 43.3524V44.0328L382.583 43.6626C383.053 43.2624 383.513 43.2123 383.864 43.5325C384.284 43.9228 384.444 44.7633 384.284 45.6739C384.104 46.6745 383.053 50.0466 377.087 51.2273C369.569 52.7082 364.974 48.1253 363.272 45.954C363.272 45.954 362.471 44.8233 362.932 46.1541C364.664 48.3855 368.938 52.8783 377.207 51.9878C380.61 51.7676 383.183 50.767 385.496 49.3561C387.157 48.3455 388.589 47.475 389.91 47.475C391.312 47.475 392.143 48.0954 392.603 48.6157C393.104 49.186 393.394 49.9465 393.394 50.6369C393.394 50.847 393.354 51.5375 392.853 51.5375C391.602 51.5375 390.921 49.7464 390.901 49.6063L390.881 49.5863Z" fill="white" stroke="#A97C50" stroke-width="0.25"/>
<path d="M392.822 7.03988C393.333 7.03988 393.363 7.73034 393.363 7.94047C393.363 8.63089 393.062 9.39139 392.572 9.96174C392.121 10.4821 391.29 11.1024 389.879 11.1024C388.558 11.1024 387.126 10.2319 385.464 9.22129C383.152 7.81042 380.579 6.79978 377.176 6.58965C368.907 5.70911 364.632 10.1918 362.901 12.4232C362.44 13.744 363.241 12.6234 363.241 12.6234C364.943 10.462 369.548 5.86916 377.055 7.35007C383.022 8.53081 384.073 11.8929 384.253 12.9036C384.413 13.8141 384.253 14.6546 383.833 15.0448C383.492 15.365 383.022 15.3151 382.551 14.9148L382.121 14.5445V15.225C382.091 16.2757 382.511 18.2869 384.223 18.3469C386.616 18.427 387.016 15.7453 387.096 14.2644C387.977 14.7947 390.109 15.6653 392.532 13.584C394.764 11.6728 395.114 9.05118 394.744 7.40015C394.464 6.13937 393.753 5.31885 392.952 5.31885C392.241 5.31885 391.661 5.67908 391.341 6.26945C391.06 6.78977 390.8 8.01054 390.86 8.97114C390.88 8.83105 391.561 7.02993 392.812 7.02993L392.822 7.03988Z" fill="white" stroke="#A97C50" stroke-width="0.25"/>
<path d="M321.318 33.2861C315.512 41.2211 308.395 53.4286 298.234 53.4286C294.18 53.4286 287.633 50.857 287.633 41.2311C287.633 27.2524 298.484 23.7602 297.753 18.4869C297.373 15.6852 295.081 18.2668 295.081 18.2668C295.081 18.2668 295.441 14.3544 298.624 14.3544C302.669 14.3544 302.959 19.4075 301.738 22.8397C301.738 22.8397 302.528 21.5088 304.991 21.5088C307.454 21.5088 309.796 26.4019 312.869 27.7027C314.891 28.5632 314.601 29.2937 314.601 29.2937C314.601 29.2937 314.891 30.0241 312.869 30.8846C309.796 32.1854 307.444 37.0785 304.991 37.0785C302.538 37.0785 301.738 35.7476 301.738 35.7476C302.969 39.1798 302.679 44.2329 298.624 44.2329C295.441 44.2329 295.081 40.3305 295.081 40.3305C295.081 40.3305 297.373 42.9021 297.753 40.1104C298.084 37.6889 295.962 35.6176 293.589 32.7658C294.86 30.2142 295.871 29.2937 295.871 29.2937C297.123 30.6445 298.564 31.565 299.926 31.565C302.388 31.565 303.469 29.3137 303.469 29.3137C303.469 29.3137 302.388 27.0623 299.926 27.0623C296.242 27.0623 292.118 33.2561 292.118 38.9797C292.118 42.0316 293.209 47.1447 298.184 47.555C305.892 48.1954 314.451 37.2986 319.006 29.2837C319.006 29.2837 320.718 32.3956 321.318 33.3161V33.2861Z" fill="white" stroke="#A97C50" stroke-width="0.5"/>
<path d="M324.472 29.2137C325.993 27.6627 327.615 26.6421 329.046 26.6421C332.08 26.6421 332.88 28.4232 332.88 29.2737C332.88 30.1242 332.09 31.9154 329.046 31.9154C321.458 31.9154 313.34 5.00867 298.234 5.00867C294.18 5.00867 287.633 7.71035 287.633 17.3363C287.633 22.5395 289.154 26.3319 290.996 29.2537C291.897 27.7728 293.599 25.8316 293.599 25.8316C292.728 23.9404 292.118 21.699 292.118 19.6177C292.118 16.5658 293.229 11.6528 298.184 11.0424C305.852 10.0918 315.752 22.8597 319.947 30.9648C323.711 38.2393 327.915 37.739 327.915 37.739C326.314 39.3099 324.762 42.0116 324.762 45.904C324.762 49.7964 327.014 52.1679 328.536 52.1679C330.057 52.1679 330.868 50.9772 330.868 50.9772C330.868 50.9772 328.696 51.1973 328.696 48.5457C328.696 43.2524 336.504 43.6826 336.504 38.5995C336.504 35.1974 334.682 34.7171 333.811 34.7171C332.941 34.7171 332.18 35.7077 332.18 37.0785C332.18 39.1398 334.122 39.45 334.122 38.3093C334.122 38.3093 334.212 39.3099 333.331 39.3099C332.29 39.3099 331.789 37.939 331.789 37.0685C331.789 35.0573 332.981 34.0767 333.821 34.0767C336.795 34.0767 336.865 37.3387 338.747 37.3387C341.5 37.3387 342 32.6658 344.603 32.0054C345.123 31.8753 347.946 30.2543 348.066 29.2737C347.946 28.2931 345.113 26.6721 344.603 26.542C342 25.8716 341.5 21.2087 338.747 21.2087C336.865 21.2087 336.795 24.4707 333.821 24.4707C332.981 24.4707 331.789 23.4901 331.789 21.4789C331.789 20.6084 332.3 19.2375 333.331 19.2375C334.212 19.2375 334.122 20.2381 334.122 20.2381C334.122 19.0974 332.18 19.4076 332.18 21.4689C332.18 22.8397 332.951 23.8303 333.811 23.8303C334.672 23.8303 336.504 23.35 336.504 19.9479C336.504 14.8648 328.696 15.295 328.696 10.0018C328.696 7.35011 330.868 7.57025 330.868 7.57025C330.868 7.57025 330.047 6.37951 328.536 6.37951C327.024 6.37951 324.762 8.76101 324.762 12.6534C324.762 16.5458 326.324 19.2475 327.915 20.8185C327.915 20.8185 324.652 20.5583 321.328 25.3012C321.328 25.3012 323.22 27.9329 324.472 29.2037V29.2137Z" fill="white" stroke="#A97C50" stroke-width="0.5"/>
<path d="M377.695 29.2837C375.542 29.2837 374.151 27.7027 374.151 25.4413C374.151 22.8097 375.482 22.4695 376.173 22.4695C376.533 22.4695 377.725 22.8697 377.725 24.5107C377.725 24.8509 377.634 25.2012 377.454 25.5114C377.735 25.4313 378.025 25.3013 378.255 25.0411C378.555 24.7009 378.706 24.2106 378.706 23.5402C378.706 20.8585 377.034 18.0167 373.931 18.0167C372.409 18.0167 371.098 18.7072 370.227 19.9579C369.456 21.0886 369.106 22.6196 369.226 24.2706L369.296 25.2212L368.745 24.6008C368.745 24.6008 367.624 23.36 365.322 23.36C364.1 23.36 362.539 24.901 361.047 26.3819C360.266 27.1624 359.505 28.7934 358.805 29.3037C359.505 29.814 360.266 31.4451 361.047 32.2255C362.549 33.7165 364.1 35.2474 365.322 35.2474C367.624 35.2474 368.735 34.0166 368.745 34.0066L369.296 33.3862L369.226 34.3268C369.106 35.9778 369.456 37.5088 370.227 38.6395C371.088 39.8903 372.399 40.5807 373.931 40.5807C377.024 40.5807 378.706 37.7289 378.706 35.0573C378.706 34.3868 378.555 33.8965 378.255 33.5563C378.025 33.2962 377.735 33.1661 377.454 33.0961C377.634 33.4063 377.725 33.7565 377.725 34.0867C377.725 35.7177 376.543 36.1279 376.173 36.1279C375.482 36.1279 374.151 35.7777 374.151 33.1461C374.151 30.8847 375.542 29.3037 377.695 29.3037V29.2837Z" fill="#E1E8F2" stroke="#1D1D1B" stroke-width="0.25"/>
<path d="M381.712 36.8884C380.911 40.8909 378.459 45.2336 373.944 45.2336C365.835 45.2336 360.29 39.5301 354.854 32.8459C356.035 36.6483 357.386 43.1923 356.045 46.1442C355.555 47.2248 354.764 47.7752 353.703 47.7752C353.012 47.7752 352.481 47.465 352.111 46.8546C351.69 46.1642 351.57 45.2036 351.56 44.3631C351.41 44.8434 351.28 45.4037 351.25 46.0241C351.25 46.1242 351.25 46.2242 351.25 46.3243C351.25 47.4049 351.6 48.4956 352.201 49.2861C352.682 49.9065 353.522 50.6069 354.844 50.4468C358.137 50.0366 358.007 46.2442 358.007 46.0841V45.894L358.107 45.7739C358.187 45.6839 358.347 45.6038 358.518 45.6939C358.808 45.854 358.968 46.4544 359.018 47.6852C359.098 49.3962 359.589 50.3968 361.921 51.0872C362.161 50.5869 362.742 49.2261 362.742 47.9253C362.742 47.3249 362.622 46.7345 362.272 46.2542C362.001 45.884 361.871 45.5638 361.871 45.2836C361.871 45.2136 361.871 45.1536 361.891 45.0935C361.941 44.8834 362.071 44.7333 362.242 44.6833C362.532 44.5932 362.912 44.8034 363.173 45.1736C363.863 46.1842 371.371 49.3661 376.637 46.5644C379.48 45.0435 381.222 41.2712 381.722 36.8984L381.712 36.8884Z" fill="#A97C50" stroke="#A97C50" stroke-width="0.25"/>
<path d="M380.609 50.9069C383.933 49.2659 384.674 46.7043 384.834 45.8237C384.884 45.5336 384.914 45.2534 384.914 44.9732C384.914 44.0927 384.654 43.3122 384.183 42.8819C383.773 42.5017 383.272 42.4417 382.762 42.6718C382.872 41.9914 383.202 41.0008 384.253 40.9607C386.185 40.8907 386.506 42.922 386.556 44.9132L386.576 45.5936L387.006 45.2134C387.096 45.1233 389.399 43.1721 392.232 45.5936C394.194 47.2747 394.584 49.6462 394.264 51.057C394.054 51.9876 393.633 52.5779 392.982 52.5779C392.482 52.5779 392.061 52.2777 391.791 51.9576C392.071 52.1377 392.402 52.2677 392.822 52.2677C393.493 52.2677 393.943 51.5974 393.943 50.6067C393.943 49.6962 393.573 48.7255 392.952 48.0151C392.422 47.4147 391.471 46.6843 389.879 46.6843C388.438 46.6843 386.946 47.5848 385.224 48.6355C383.833 49.486 382.321 50.3266 380.609 50.9069Z" fill="#A97C50" stroke="#A97C50" stroke-width="0.25"/>
<path d="M381.712 21.669C380.911 17.6665 378.459 13.3338 373.944 13.3338C365.835 13.3338 360.29 19.0374 354.854 25.7215C356.035 21.9192 357.386 15.3751 356.045 12.4232C355.555 11.3426 354.764 10.7922 353.703 10.7922C353.012 10.7922 352.481 11.1025 352.111 11.7128C351.69 12.4033 351.57 13.3638 351.56 14.2044C351.41 13.7241 351.28 13.1537 351.25 12.5433C351.25 12.4432 351.25 12.3432 351.25 12.2431C351.25 11.1625 351.6 10.0718 352.201 9.28133C352.682 8.66095 353.522 7.96048 354.844 8.12058C358.137 8.53084 358.007 12.3232 358.007 12.4833V12.6734L358.107 12.7935C358.187 12.8835 358.347 12.9636 358.518 12.8735C358.808 12.7134 358.968 12.1131 359.018 10.8723C359.098 9.16123 359.589 8.16064 361.921 7.47021C362.161 7.97052 362.742 9.33134 362.742 10.6321C362.742 11.2325 362.622 11.8229 362.272 12.3032C362.001 12.6734 361.871 12.9936 361.871 13.2738C361.871 13.3438 361.871 13.4039 361.891 13.4639C361.941 13.674 362.071 13.8241 362.242 13.8741C362.532 13.9542 362.912 13.7541 363.173 13.3839C363.863 12.3732 371.371 9.19124 376.637 11.993C379.48 13.5139 381.222 17.2863 381.722 21.649L381.712 21.669Z" fill="#A97C50" stroke="#A97C50" stroke-width="0.25"/>
<path d="M385.232 9.91169C386.954 10.9623 388.445 11.8628 389.887 11.8628C391.469 11.8628 392.43 11.1424 392.96 10.5321C393.581 9.81162 393.951 8.84099 393.951 7.94044C393.951 6.93982 393.501 6.26942 392.83 6.26942C392.41 6.26942 392.079 6.38949 391.799 6.57961C392.069 6.25941 392.49 5.95923 392.99 5.95923C393.641 5.95923 394.061 6.55956 394.272 7.48013C394.592 8.881 394.191 11.2625 392.239 12.9435C389.406 15.375 387.114 13.4138 387.014 13.3238L386.583 12.9435L386.563 13.624C386.513 15.6152 386.193 17.6465 384.261 17.5764C383.22 17.5364 382.88 16.5458 382.769 15.8653C383.28 16.0955 383.781 16.0355 384.191 15.6552C384.661 15.215 384.922 14.4445 384.922 13.5639C384.922 13.2837 384.892 13.0036 384.842 12.7134C384.681 11.8329 383.941 9.27126 380.617 7.63025C382.329 8.21061 383.841 9.04113 385.232 9.89166V9.91169Z" fill="#A97C50" stroke="#A97C50" stroke-width="0.25"/>
<path d="M337.078 29.2836C337.078 29.2836 338.45 31.8652 340.322 29.2836C338.45 26.702 337.078 29.2836 337.078 29.2836Z" fill="#A97C50" stroke="#1D1D1B" stroke-width="0.25"/>
<path d="M363.672 29.2837C363.672 29.2837 364.923 26.492 369.168 29.2837C364.933 32.0755 363.672 29.2837 363.672 29.2837Z" fill="#A97C50" stroke="#1D1D1B" stroke-width="0.25"/>
<path d="M62.5858 14.3844C62.5858 14.3844 59.8629 14.3544 57.6806 13.1136C55.4983 11.8728 53.1859 16.0755 51.7344 15.0849C51.7344 15.0849 53.0157 19.9979 56.4393 17.9066C58.1511 16.866 58.7918 16.1855 62.5858 14.3744V14.3844Z" fill="#A97C50" stroke="#A97C50" stroke-width="0.25"/>
<path d="M62.5858 44.1731C62.5858 44.1731 59.8629 44.203 57.6806 45.4438C55.4983 46.6846 53.1859 42.482 51.7344 43.4626C51.7344 43.4626 53.0157 38.5495 56.4393 40.6408C58.1511 41.6815 58.7918 42.3619 62.5858 44.1731Z" fill="#A97C50" stroke="#A97C50" stroke-width="0.25"/>
<path d="M45.8591 29.2636C39.8327 21.6889 33.8464 14.0943 24.9471 14.0943C19.231 14.0943 17.3991 21.2587 17.3591 23.7202C17.309 26.8021 19.5213 28.6132 21.2131 28.6132C22.5846 28.6132 24.2463 27.5826 24.2463 25.4013C24.2463 23.7302 23.5756 23.1399 22.7047 23.1399C22.3844 23.1399 21.7637 23.5601 21.7437 24.4006C21.7237 24.971 22.004 25.7515 22.6146 25.9116C22.5545 25.9216 21.133 26.592 20.2521 25.6014C19.8217 25.1111 19.6014 24.4207 19.6014 23.5201C19.6014 20.4682 21.4734 17.2262 24.9471 17.2262C26.6388 17.2262 28.1004 18.0067 29.0714 19.4176C29.8322 20.5283 30.2426 21.9791 30.2426 23.5501C30.8232 23.1298 31.9044 22.5595 33.5461 22.5595C34.9576 22.5595 36.5993 24.1705 38.171 25.7315C39.4523 27.0023 40.6636 29.1836 41.5145 29.2636C40.6636 29.3437 39.4523 31.5251 38.171 32.7959C36.5893 34.3568 34.9576 35.9678 33.5461 35.9678C31.9044 35.9678 30.8232 35.3975 30.2426 34.9772C30.2426 36.5582 29.8322 37.9991 29.0714 39.1098C28.1004 40.5206 26.6388 41.3011 24.9471 41.3011C21.4734 41.3011 19.6014 38.0591 19.6014 35.0072C19.6014 34.1066 19.8217 33.4163 20.2521 32.9259C21.123 31.9453 22.5545 32.6057 22.6146 32.6257C22.004 32.7858 21.7237 33.5663 21.7437 34.1367C21.7737 34.9772 22.3944 35.3974 22.7047 35.3974C23.5856 35.3974 24.2463 34.8171 24.2463 33.1461C24.2463 30.9647 22.5746 29.934 21.2131 29.934C19.5213 29.934 17.309 31.7452 17.3591 34.8271C17.3991 37.2886 19.231 44.453 24.9471 44.453C33.8464 44.453 39.6325 37.1085 45.6589 29.5338C50.3238 23.6602 55.5292 16.916 62.7468 14.4445C60.064 14.1943 57.0508 13.3938 55.5192 11.5426C54.8085 10.6721 54.4481 9.63147 54.4481 8.43073C54.4481 7.22998 54.7785 6.16933 55.3891 5.42887C56.0398 4.64838 57.0008 4.26817 57.9618 4.38825C59.9839 4.65841 60.4044 6.30946 60.4044 7.66029C60.4044 9.37135 59.7537 10.5321 58.142 10.5321C57.6915 10.5321 56.8306 10.1618 56.4903 9.30126C56.3001 8.84098 56.1199 8.13055 56.4903 7.12993C56.7505 6.46953 57.3512 6.2794 57.1309 7.56019C56.9507 8.0505 56.9307 8.46075 57.1009 8.81097C57.2911 9.22122 57.6014 9.55142 58.182 9.55142C59.6336 9.55142 59.6836 8.10051 59.6836 7.67025C59.6836 6.24937 59.113 5.5089 57.8917 5.3488C57.1309 5.24874 56.3801 5.54896 55.8796 6.13933C55.4091 6.68967 55.1789 7.47013 55.1789 8.43073C55.1789 9.39132 55.4492 10.1618 56.0198 10.8423C58.2021 13.5039 64.0282 13.664 66.7811 13.5639C67.4818 13.4839 68.3127 13.4838 69.0535 13.4838C72.2468 13.4838 75.3501 14.6046 78.083 16.2256C77.4924 14.9548 77.2221 13.4138 77.2221 11.5827C77.2221 7.97047 79.4845 6.04925 81.1262 6.04925C82.9681 6.04925 84.3095 7.6903 84.3095 9.96171C84.3095 12.113 82.9882 13.3938 81.7068 13.3938C80.9961 13.3938 80.3053 12.6934 80.0751 11.7328C79.8448 10.7822 80.1051 9.83161 80.7758 9.19121C81.1662 8.99109 81.6367 9.10117 81.1963 9.96171C80.6357 10.502 80.6857 11.1224 80.7658 11.4326C80.906 12.0029 81.3164 12.4332 81.7168 12.4332C82.6278 12.4332 83.5988 11.5627 83.5988 9.96171C83.5988 8.22063 82.5877 7.00987 81.1462 7.00987C80.035 7.00987 77.9629 8.3507 77.9629 11.5827C77.9629 14.5345 78.8037 16.4557 79.4845 17.0261C84.74 20.5683 88.6241 25.6514 88.6741 25.7315L88.0034 26.3718C87.9133 26.2518 78.9839 14.4344 69.0635 14.4344C59.1431 14.4344 52.2258 22.4895 46.1193 30.1642C45.8891 30.4544 45.5588 30.9147 45.3185 31.2048C44.3675 32.1955 41.8749 42.5019 43.3564 45.7439C43.7368 46.5844 44.3475 47.0046 45.2084 47.0046C45.7189 47.0046 46.0893 46.7945 46.3496 46.3742C47.0703 45.1835 46.9202 42.5719 46.9102 42.5519C46.9502 42.6119 48.1215 43.9728 48.2416 45.964C48.3217 47.3649 47.9112 48.8057 47.1204 49.8264C46.3196 50.867 45.2184 51.3473 44.0171 51.2072C41.6246 50.907 40.7837 48.9959 40.4934 47.585C40.4934 47.645 40.4934 47.6751 40.4934 47.7351C40.3733 50.1166 39.4523 51.2072 36.9397 51.8977L36.7595 51.9477L36.6494 51.7476C36.5893 51.6375 35.6083 49.7864 35.6083 47.9252C35.6083 47.1548 35.7785 46.3843 36.2389 45.7439C36.319 45.6338 36.3691 45.5538 36.3991 45.4837C36.329 45.5237 36.259 45.5837 36.1789 45.6938C35.2579 47.0446 27.4497 50.1466 22.074 47.2748C18.21 45.2135 16.2179 38.3092 16.9086 33.8265C17.2089 31.1248 19.3111 29.4138 21.0329 29.2937C19.3111 29.1736 17.2089 27.4625 16.9086 24.7609C16.2179 20.2781 18.22 13.3738 22.074 11.3125C27.4497 8.44074 35.2579 11.5427 36.1789 12.8935C36.249 13.0036 36.329 13.0636 36.3991 13.1036C36.3591 13.0336 36.319 12.9536 36.2389 12.8435C35.7785 12.1931 35.6083 11.4226 35.6083 10.6622C35.6083 8.801 36.5893 6.94984 36.6494 6.83978L36.7595 6.63964L36.9397 6.68966C39.4523 7.38009 40.3833 8.47074 40.4934 10.8522C40.4934 10.9122 40.4934 10.9423 40.4934 11.0023C40.7837 9.59145 41.6246 7.68029 44.0171 7.39011C45.2184 7.24001 46.3196 7.73032 47.1204 8.77097C47.9012 9.7916 48.3217 11.2325 48.2416 12.6333C48.1215 14.6246 46.9502 15.9854 46.9102 16.0454C46.9102 16.0154 47.0703 13.4139 46.3496 12.2231C46.0893 11.7929 45.7189 11.5927 45.2084 11.5927C44.3475 11.5927 43.7468 12.0029 43.3564 12.8535C41.8849 16.1055 44.3775 26.4019 45.3185 27.4025C45.5487 27.6927 46.1494 28.4031 46.3796 28.6933L45.8691 29.3137L45.8591 29.2636Z" fill="white" stroke="#A97C50" stroke-width="0.25"/>
<path d="M46.3516 29.834C50.8363 35.4775 55.9016 41.7514 62.7488 44.1029C60.066 44.363 57.0528 45.1535 55.5212 47.0046C54.8105 47.8652 54.4501 48.9159 54.4501 50.1166C54.4501 51.3173 54.7804 52.378 55.3911 53.1084C56.0418 53.8889 57.0028 54.2691 57.9638 54.1491C59.9859 53.8789 60.4064 52.2179 60.4064 50.877C60.4064 49.156 59.7557 48.0053 58.144 48.0053C57.6935 48.0053 56.8326 48.3755 56.4922 49.2361C56.302 49.6963 56.1218 50.4068 56.4922 51.4074C56.7525 52.0678 57.3531 52.2579 57.1329 50.9771C56.9527 50.4968 56.9327 50.0766 57.1029 49.7364C57.2931 49.3261 57.6034 48.9959 58.184 48.9959C59.6355 48.9959 59.6856 50.4468 59.6856 50.877C59.6856 52.2979 59.115 53.0384 57.8937 53.1985C57.1329 53.2985 56.3821 52.9984 55.8816 52.398C55.4111 51.8376 55.1809 51.0672 55.1809 50.1066C55.1809 49.146 55.4511 48.3755 56.0217 47.6951C58.204 45.0434 64.0302 44.8733 66.7831 44.9734C67.4838 45.0535 68.3147 45.0535 69.0555 45.0535C72.2488 45.0535 75.3521 43.9327 78.085 42.3117C77.4943 43.5725 77.2241 45.1235 77.2241 46.9546C77.2241 50.5668 79.4864 52.4881 81.1282 52.4881C82.9701 52.4881 84.3115 50.847 84.3115 48.5856C84.3115 46.3242 82.9901 45.1535 81.7088 45.1535C80.998 45.1535 80.3073 45.8539 80.0771 46.8145C79.8468 47.7651 80.1071 48.7157 80.7778 49.3561C81.1682 49.5562 81.6387 49.4462 81.1982 48.5856C80.6376 48.0453 80.6877 47.4349 80.7678 47.1147C80.9079 46.5444 81.3184 46.1141 81.7188 46.1141C82.6297 46.1141 83.6008 46.9846 83.6008 48.5956C83.6008 50.3367 82.5897 51.5475 81.1482 51.5475C80.037 51.5475 77.9648 50.2066 77.9648 46.9746C77.9648 44.0228 78.8057 42.1116 79.4864 41.5313C84.742 37.9891 88.6461 32.8959 88.6961 32.8158L88.0254 32.1955C87.9353 32.3155 78.9859 44.1129 69.0655 44.1129C59.145 44.1129 52.7183 36.6583 46.8421 29.2837L46.3716 29.834H46.3516Z" fill="white" stroke="#A97C50" stroke-width="0.25"/>
<path d="M8.01153 49.5863C8.06159 50.5368 7.81132 51.7676 7.53103 52.2879C7.21069 52.8883 6.63008 53.2486 5.91933 53.2486C5.11849 53.2486 4.41775 52.428 4.12745 51.1673C3.75706 49.5062 4.10742 46.8946 6.33977 44.9834C8.76232 42.9021 10.8946 43.7826 11.7755 44.313C11.8556 42.822 12.256 40.1404 14.6485 40.2305C16.3603 40.2905 16.7808 42.3018 16.7607 43.3524V44.0328L16.3103 43.6626C15.8398 43.2624 15.3793 43.2123 15.0389 43.5325C14.6185 43.9228 14.4583 44.7633 14.6185 45.6739C14.7987 46.6745 15.8498 50.0466 21.8161 51.2273C29.334 52.7082 33.9288 48.1253 35.6306 45.954C35.6306 45.954 36.4314 44.8233 35.971 46.1541C34.2391 48.3855 29.9747 52.8783 21.6959 51.9878C18.2924 51.7676 15.7196 50.767 13.4072 49.3561C11.7455 48.3455 10.314 47.475 8.99257 47.475C7.59109 47.475 6.76022 48.0954 6.29973 48.6157C5.7992 49.186 5.5089 49.9465 5.5089 50.6369C5.5089 50.847 5.54894 51.5375 6.04947 51.5375C7.30079 51.5375 7.9815 49.7464 8.00152 49.6063L8.01153 49.5863Z" fill="white" stroke="#A97C50" stroke-width="0.25"/>
<path d="M6.05948 7.03988C5.54894 7.03988 5.51891 7.73034 5.51891 7.94047C5.51891 8.63089 5.81923 9.39139 6.30974 9.96174C6.76022 10.4821 7.59109 11.1024 9.00258 11.1024C10.324 11.1024 11.7555 10.2319 13.4172 9.22129C15.7297 7.81042 18.3024 6.79978 21.7059 6.58965C29.9847 5.70911 34.2492 10.1918 35.981 12.4232C36.4415 13.744 35.6406 12.6234 35.6406 12.6234C33.9388 10.462 29.334 5.86916 21.8261 7.35007C15.8598 8.53081 14.8087 11.8929 14.6285 12.9036C14.4683 13.8141 14.6285 14.6546 15.0489 15.0448C15.3893 15.365 15.8598 15.3151 16.3203 14.9148L16.7507 14.5445V15.225C16.7808 16.2757 16.3603 18.2869 14.6485 18.3469C12.256 18.427 11.8556 15.7453 11.7755 14.2644C10.8946 14.7947 8.76232 15.6653 6.33977 13.584C4.10742 11.6728 3.75706 9.05118 4.12745 7.40015C4.40774 6.13937 5.10848 5.31885 5.91933 5.31885C6.63008 5.31885 7.21069 5.67908 7.53103 6.26945C7.81132 6.78977 8.0716 8.01054 8.01153 8.97114C7.99151 8.83105 7.3108 7.02993 6.05948 7.02993V7.03988Z" fill="white" stroke="#A97C50" stroke-width="0.25"/>
<path d="M77.5781 33.2861C83.3842 41.2211 90.5017 53.4286 100.662 53.4286C104.717 53.4286 111.264 50.857 111.264 41.2311C111.264 27.2524 100.412 23.7602 101.143 18.4869C101.523 15.6852 103.816 18.2668 103.816 18.2668C103.816 18.2668 103.455 14.3544 100.272 14.3544C96.2278 14.3544 95.9374 19.4075 97.1587 22.8397C97.1587 22.8397 96.3679 21.5088 93.9053 21.5088C91.4427 21.5088 89.1002 26.4019 86.027 27.7027C84.0049 28.5632 84.2952 29.2937 84.2952 29.2937C84.2952 29.2937 84.0049 30.0241 86.027 30.8846C89.1002 32.1854 91.4427 37.0785 93.9053 37.0785C96.3679 37.0785 97.1587 35.7476 97.1587 35.7476C95.9274 39.1798 96.2177 44.2329 100.272 44.2329C103.455 44.2329 103.816 40.3305 103.816 40.3305C103.816 40.3305 101.523 42.9021 101.143 40.1104C100.813 37.6889 102.935 35.6176 105.307 32.7658C104.036 30.2142 103.025 29.2937 103.025 29.2937C101.774 30.6445 100.332 31.565 98.9706 31.565C96.5181 31.565 95.4269 29.3137 95.4269 29.3137C95.4269 29.3137 96.508 27.0623 98.9706 27.0623C102.655 27.0623 106.779 33.2561 106.779 38.9797C106.779 42.0316 105.688 47.1447 100.712 47.555C93.0044 48.1954 84.4454 37.2986 79.8906 29.2837C79.8906 29.2837 78.1788 32.3956 77.5781 33.3161V33.2861Z" fill="white" stroke="#A97C50" stroke-width="0.5"/>
<path d="M74.423 29.2137C72.9114 27.6627 71.2797 26.6421 69.8481 26.6421C66.815 26.6421 66.0141 28.4232 66.0141 29.2737C66.0141 30.1242 66.8049 31.9154 69.8481 31.9154C77.4361 31.9154 85.5547 5.00867 100.661 5.00867C104.715 5.00867 111.262 7.71035 111.262 17.3363C111.262 22.5395 109.74 26.3319 107.898 29.2537C106.997 27.7728 105.295 25.8316 105.295 25.8316C106.166 23.9404 106.777 21.699 106.777 19.6177C106.777 16.5658 105.676 11.6528 100.711 11.0424C93.0526 10.0918 83.1421 22.8597 78.9477 30.9648C75.1838 38.2393 70.9793 37.739 70.9793 37.739C72.581 39.3099 74.1327 42.0116 74.1327 45.904C74.1327 49.7964 71.8803 52.1679 70.3587 52.1679C68.8371 52.1679 68.0262 50.9772 68.0262 50.9772C68.0262 50.9772 70.1985 51.1973 70.1985 48.5457C70.1985 43.2524 62.3903 43.6826 62.3903 38.5995C62.3903 35.1974 64.2122 34.7171 65.0831 34.7171C65.954 34.7171 66.7148 35.7077 66.7148 37.0785C66.7148 39.1398 64.7728 39.45 64.7728 38.3093C64.7728 38.3093 64.6827 39.3099 65.5636 39.3099C66.6047 39.3099 67.1053 37.939 67.1053 37.0685C67.1053 35.0573 65.914 34.0767 65.0731 34.0767C62.1 34.0767 62.0299 37.3387 60.1479 37.3387C57.405 37.3387 56.8945 32.6658 54.2918 32.0054C53.7712 31.8753 50.9483 30.2543 50.8281 29.2737C50.9483 28.2931 53.7812 26.6721 54.2918 26.542C56.8945 25.8716 57.405 21.2087 60.1479 21.2087C62.0299 21.2087 62.1 24.4707 65.0731 24.4707C65.914 24.4707 67.1053 23.4901 67.1053 21.4789C67.1053 20.6084 66.5947 19.2375 65.5636 19.2375C64.6827 19.2375 64.7728 20.2381 64.7728 20.2381C64.7728 19.0974 66.7148 19.4076 66.7148 21.4689C66.7148 22.8397 65.944 23.8303 65.0831 23.8303C64.2222 23.8303 62.3903 23.35 62.3903 19.9479C62.3903 14.8648 70.1985 15.295 70.1985 10.0018C70.1985 7.35011 68.0262 7.57025 68.0262 7.57025C68.0262 7.57025 68.8471 6.37951 70.3587 6.37951C71.8703 6.37951 74.1327 8.76101 74.1327 12.6534C74.1327 16.5458 72.571 19.2475 70.9793 20.8185C70.9793 20.8185 74.2428 20.5583 77.5663 25.3012C77.5663 25.3012 75.6743 27.9329 74.423 29.2037V29.2137Z" fill="white" stroke="#A97C50" stroke-width="0.5"/>
<path d="M21.1986 29.2837C23.3508 29.2837 24.7423 27.7027 24.7423 25.4413C24.7423 22.8097 23.4109 22.4695 22.7202 22.4695C22.3598 22.4695 21.1685 22.8697 21.1685 24.5107C21.1685 24.8509 21.2586 25.2012 21.4388 25.5114C21.1585 25.4313 20.8682 25.3013 20.638 25.0411C20.3377 24.7009 20.1875 24.2106 20.1875 23.5402C20.1875 20.8585 21.8593 18.0167 24.9625 18.0167C26.4841 18.0167 27.7955 18.7072 28.6564 19.9579C29.4272 21.0886 29.7876 22.6196 29.6575 24.2706L29.5874 25.2212L30.138 24.6008C30.138 24.6008 31.2592 23.36 33.5616 23.36C34.7829 23.36 36.3445 24.901 37.8361 26.3819C38.6269 27.1624 39.3777 28.7934 40.0784 29.3037C39.3777 29.814 38.6169 31.4451 37.8361 32.2255C36.3345 33.7165 34.7829 35.2474 33.5616 35.2474C31.2592 35.2474 30.148 34.0166 30.138 34.0066L29.5874 33.3862L29.6575 34.3268C29.7776 35.9778 29.4272 37.5088 28.6564 38.6395C27.7955 39.8903 26.4841 40.5807 24.9625 40.5807C21.8693 40.5807 20.1875 37.7289 20.1875 35.0573C20.1875 34.3868 20.3377 33.8965 20.638 33.5563C20.8682 33.2962 21.1585 33.1661 21.4388 33.0961C21.2586 33.4063 21.1685 33.7565 21.1685 34.0867C21.1685 35.7177 22.3498 36.1279 22.7202 36.1279C23.4109 36.1279 24.7423 35.7777 24.7423 33.1461C24.7423 30.8847 23.3508 29.3037 21.1986 29.3037V29.2837Z" fill="#E1E8F2" stroke="#1D1D1B" stroke-width="0.25"/>
<path d="M17.1797 36.8884C17.9705 40.8909 20.4331 45.2336 24.9479 45.2336C33.0564 45.2336 38.6122 39.5301 44.038 32.8459C42.8567 36.6483 41.5053 43.1923 42.8467 46.1442C43.3372 47.2248 44.128 47.7752 45.1892 47.7752C45.8799 47.7752 46.4105 47.465 46.7808 46.8546C47.2013 46.1642 47.3214 45.2036 47.3314 44.3631C47.4816 44.8434 47.6117 45.4037 47.6418 46.0241C47.6418 46.1242 47.6418 46.2242 47.6418 46.3243C47.6418 47.4049 47.2914 48.4956 46.6907 49.2861C46.2102 49.9065 45.3694 50.6069 44.048 50.4468C40.7545 50.0366 40.8846 46.2442 40.8846 46.0841V45.894L40.7845 45.7739C40.7044 45.6839 40.5443 45.6038 40.3741 45.6939C40.0838 45.854 39.9236 46.4544 39.8736 47.6852C39.7935 49.3962 39.303 50.3968 36.9705 51.0872C36.7303 50.5869 36.1497 49.2261 36.1497 47.9253C36.1497 47.3249 36.2698 46.7345 36.6201 46.2542C36.8904 45.884 37.0206 45.5638 37.0206 45.2836C37.0206 45.2136 37.0206 45.1536 37.0005 45.0935C36.9505 44.8834 36.8204 44.7333 36.6502 44.6833C36.3599 44.5932 35.9795 44.8034 35.7192 45.1736C35.0285 46.1842 27.5206 49.3661 22.265 46.5644C19.422 45.0435 17.6802 41.2712 17.1797 36.8984V36.8884Z" fill="#A97C50" stroke="#A97C50" stroke-width="0.25"/>
<path d="M18.27 50.9069C14.9465 49.2659 14.2057 46.7043 14.0456 45.8237C13.9955 45.5336 13.9655 45.2534 13.9655 44.9732C13.9655 44.0927 14.2258 43.3122 14.6963 42.8819C15.1067 42.5017 15.6072 42.4417 16.1178 42.6718C16.0076 41.9914 15.6773 41.0008 14.6262 40.9607C12.6942 40.8907 12.3738 42.922 12.3238 44.9132L12.3037 45.5936L11.8733 45.2134C11.7732 45.1233 9.48077 43.1721 6.64779 45.5936C4.68573 47.2747 4.29532 49.6462 4.61565 51.057C4.82587 51.9876 5.24632 52.5779 5.897 52.5779C6.39753 52.5779 6.82798 52.2777 7.09827 51.9576C6.82798 52.1377 6.48762 52.2677 6.06718 52.2677C5.39647 52.2677 4.946 51.5974 4.946 50.6067C4.946 49.6962 5.31639 48.7255 5.93704 48.0151C6.4676 47.4147 7.4186 46.6843 9.01028 46.6843C10.4518 46.6843 11.9434 47.5848 13.6652 48.6355C15.0566 49.486 16.5682 50.3266 18.28 50.9069H18.27Z" fill="#A97C50" stroke="#A97C50" stroke-width="0.25"/>
<path d="M17.1797 21.669C17.9705 17.6665 20.4331 13.3338 24.9479 13.3338C33.0564 13.3338 38.6122 19.0374 44.038 25.7215C42.8567 21.9192 41.5053 15.3751 42.8467 12.4232C43.3372 11.3426 44.128 10.7922 45.1892 10.7922C45.8799 10.7922 46.4105 11.1025 46.7808 11.7128C47.2013 12.4033 47.3214 13.3638 47.3314 14.2044C47.4816 13.7241 47.6117 13.1537 47.6418 12.5433C47.6418 12.4432 47.6418 12.3432 47.6418 12.2431C47.6418 11.1625 47.2914 10.0718 46.6907 9.28133C46.2102 8.66095 45.3694 7.96048 44.048 8.12058C40.7545 8.53084 40.8846 12.3232 40.8846 12.4833V12.6734L40.7845 12.7935C40.7044 12.8835 40.5443 12.9636 40.3741 12.8735C40.0838 12.7134 39.9236 12.1131 39.8736 10.8723C39.7935 9.16123 39.303 8.16064 36.9705 7.47021C36.7303 7.97052 36.1497 9.33134 36.1497 10.6321C36.1497 11.2325 36.2698 11.8229 36.6201 12.3032C36.8904 12.6734 37.0206 12.9936 37.0206 13.2738C37.0206 13.3438 37.0206 13.4039 37.0005 13.4639C36.9505 13.674 36.8204 13.8241 36.6502 13.8741C36.3599 13.9542 35.9795 13.7541 35.7192 13.3839C35.0285 12.3732 27.5206 9.19124 22.265 11.993C19.422 13.5139 17.6802 17.2863 17.1797 21.649V21.669Z" fill="#A97C50" stroke="#A97C50" stroke-width="0.25"/>
<path d="M13.6574 9.91169C11.9356 10.9623 10.444 11.8628 9.00247 11.8628C7.4208 11.8628 6.45979 11.1424 5.92923 10.5321C5.30858 9.81162 4.93819 8.84099 4.93819 7.94044C4.93819 6.93982 5.38866 6.26942 6.05937 6.26942C6.47981 6.26942 6.81016 6.38949 7.09045 6.57961C6.82017 6.25941 6.39973 5.95923 5.88919 5.95923C5.2385 5.95923 4.81806 6.55956 4.60784 7.48013C4.2875 8.881 4.67791 11.2625 6.63998 12.9435C9.47296 15.375 11.7654 13.4138 11.8655 13.3238L12.2959 12.9435L12.316 13.624C12.376 15.6152 12.6863 17.6465 14.6184 17.5764C15.6595 17.5364 15.9998 16.5458 16.1099 15.8653C15.5994 16.0955 15.0989 16.0355 14.6884 15.6552C14.218 15.215 13.9577 14.4445 13.9577 13.5639C13.9577 13.2837 13.9777 13.0036 14.0378 12.7134C14.1979 11.8329 14.9387 9.27126 18.2622 7.63025C16.5504 8.21061 15.0388 9.04113 13.6474 9.89166L13.6574 9.91169Z" fill="#A97C50" stroke="#A97C50" stroke-width="0.25"/>
<path d="M61.8215 29.2836C61.8215 29.2836 60.4501 31.8652 58.5781 29.2836C60.4501 26.702 61.8215 29.2836 61.8215 29.2836Z" fill="#A97C50" stroke="#1D1D1B" stroke-width="0.25"/>
<path d="M35.2223 29.2837C35.2223 29.2837 33.971 26.492 29.7266 29.2837C33.971 32.0755 35.2223 29.2837 35.2223 29.2837Z" fill="#A97C50" stroke="#1D1D1B" stroke-width="0.25"/>
<path d="M285.404 6.89978H114.414V51.6775H285.404V6.89978Z" fill="#B3BEBF" stroke="#A97C50" stroke-width="0.25"/>
<path d="M249.146 51.6775C251.889 51.6775 255.603 50.6569 255.993 47.2848C255.993 47.2848 262.91 50.5368 266.784 43.7326C266.784 43.7326 278.597 44.5431 276.975 35.1172C276.975 35.1172 284.273 33.7464 285.404 29.2937C284.273 24.8509 276.975 23.47 276.975 23.47C278.587 14.0442 266.784 14.8447 266.784 14.8447C262.91 8.04049 255.993 11.2925 255.993 11.2925C255.603 7.91036 251.889 6.89978 249.146 6.89978H150.672C147.929 6.89978 144.215 7.91036 143.825 11.2925C143.825 11.2925 136.918 8.04049 133.044 14.8447C133.044 14.8447 121.231 14.0442 122.843 23.47C122.843 23.47 115.535 24.8409 114.414 29.2937C115.535 33.7464 122.843 35.1172 122.843 35.1172C121.231 44.5431 133.044 43.7326 133.044 43.7326C136.918 50.5368 143.825 47.2848 143.825 47.2848C144.215 50.6669 147.929 51.6775 150.672 51.6775H249.146Z" fill="white" stroke="#A97C50" stroke-width="0.25" stroke-linecap="round" stroke-linejoin="round"/>
<path d="M397.773 57.3209H397.523H1.26589H1.01562V56.9908V1.56643V1.23621H1.26589H397.523H397.773V1.56643V56.9908V57.3209Z" stroke="black"/>
<path d="M397.525 1.56644V56.9908H1.26835V1.56644H397.525ZM398.026 0.916016H0.757812V57.6412H398.026V0.916016Z" stroke="black"/>
<path d="M191.043 36.2981C192.587 36.2981 193.844 35.2074 193.844 33.8566C193.844 32.5057 192.587 31.415 191.043 31.415C189.499 31.415 188.242 32.5057 188.242 33.8566C188.242 35.2074 189.492 36.2981 191.043 36.2981Z" fill="#A97C50" stroke="#A97C50" stroke-width="0.5" stroke-miterlimit="10"/>
<path d="M169.033 43.6527C170.027 43.6527 170.839 42.9523 170.839 42.0817C170.839 41.2112 170.027 40.5107 169.033 40.5107C168.038 40.5107 167.227 41.2112 167.227 42.0817C167.227 42.9523 168.031 43.6527 169.033 43.6527Z" fill="#A97C50" stroke="#A97C50" stroke-width="0.5" stroke-miterlimit="10"/>
<path d="M168.123 33.3463C170.4 33.3463 172.245 31.7353 172.245 29.7541C172.245 27.7728 170.4 26.1619 168.123 26.1619C165.845 26.1619 164 27.7728 164 29.7541C164 31.7353 165.845 33.3463 168.123 33.3463Z" fill="#A97C50" stroke="#A97C50" stroke-width="0.5" stroke-miterlimit="10"/>
<path d="M191.138 34.5069C190.058 34.2968 190.398 33.5063 190.987 32.966C191.615 32.3856 192.721 32.4056 193.526 32.5657C195.345 32.946 196.694 34.597 197.23 36.0579C198.447 39.3799 195.044 42.3118 191.478 42.4619C187.27 42.632 183.619 39.8402 180.752 37.5588C173.515 31.8052 169.359 30.7646 169.359 30.7646C169.359 30.7646 172.527 32.5157 175.386 34.7571C179.522 37.9991 181.839 40.8909 185.745 43.0823C189.973 45.4537 195.98 44.8634 198.617 40.8009C201.111 36.9685 198.866 32.0454 194.135 30.6446C192.021 30.0242 189.567 30.8947 188.52 32.5757C187.65 33.9866 188.631 35.8678 190.653 36.258C192.087 36.5282 192.571 34.7671 191.138 34.4969V34.5069Z" fill="#A97C50" stroke="#A97C50" stroke-width="0.5" stroke-miterlimit="10"/>
<path d="M179.634 34.507C183.495 34.0567 183.606 30.7546 183.606 30.7546C179.301 33.9966 173.758 31.6252 173.758 31.6252C173.758 31.6252 176.572 34.8672 179.634 34.507Z" fill="#A97C50" stroke="#A97C50" stroke-width="0.5" stroke-miterlimit="10"/>
<path d="M185.676 43.5226C181.704 42.5821 177.398 38.6196 173.596 37.1787C169.787 35.7379 166.063 37.3989 165.736 40.4908C165.402 43.5927 168.465 44.093 169.46 43.7328C170.454 43.3726 170.782 42.3619 170.454 42.0717C170.121 41.7815 169.545 42.5721 168.884 42.7222C168.223 42.8622 167.313 41.8616 167.477 41.0611C167.641 40.2706 169.08 37.8791 172.692 38.8998C175.755 39.7703 177.496 42.2919 177.496 42.2919C173.524 41.5014 172.778 44.9535 172.778 44.9535C177.993 43.0023 176.998 46.9748 185.604 46.5345C194.209 46.1042 197.605 41.9217 197.605 41.9217C194.543 43.9429 189.661 44.4432 185.689 43.5126L185.676 43.5226Z" fill="#A97C50" stroke="#A97C50" stroke-width="0.5" stroke-miterlimit="10"/>
<path d="M188.25 25.3614C188.25 26.7022 189.5 27.8029 191.051 27.8029C192.602 27.8029 193.852 26.7122 193.852 25.3614C193.852 24.0105 192.595 22.9199 191.051 22.9199C189.506 22.9199 188.25 24.0105 188.25 25.3614Z" fill="#A97C50" stroke="#A97C50" stroke-width="0.5" stroke-miterlimit="10"/>
<path d="M167.227 17.1362C167.227 18.0067 168.031 18.7071 169.033 18.7071C170.034 18.7071 170.839 18.0067 170.839 17.1362C170.839 16.2656 170.027 15.5652 169.033 15.5652C168.038 15.5652 167.227 16.2656 167.227 17.1362Z" fill="#A97C50" stroke="#A97C50" stroke-width="0.5" stroke-miterlimit="10"/>
<path d="M191.138 24.7109C192.571 24.4407 192.087 22.6696 190.653 22.9498C188.631 23.34 187.643 25.2212 188.52 26.632C189.567 28.3131 192.021 29.1936 194.135 28.5632C198.866 27.1624 201.117 22.2394 198.617 18.407C195.98 14.3545 189.966 13.7641 185.745 16.1255C181.839 18.3169 179.529 21.2087 175.386 24.4607C172.527 26.7021 169.359 28.4532 169.359 28.4532C169.359 28.4532 173.515 27.4126 180.752 21.659C183.619 19.3776 187.277 16.5858 191.478 16.7559C195.044 16.896 198.447 19.8379 197.23 23.1599C196.694 24.6208 195.345 26.2718 193.526 26.6521C192.721 26.8222 191.615 26.8422 190.987 26.2518C190.405 25.7115 190.058 24.921 191.138 24.7109Z" fill="#A97C50" stroke="#A97C50" stroke-width="0.5" stroke-miterlimit="10"/>
<path d="M173.758 27.5928C173.758 27.5928 179.301 25.2114 183.606 28.4534C183.606 28.4534 183.495 25.1613 179.634 24.701C176.572 24.3408 173.758 27.5828 173.758 27.5828V27.5928Z" fill="#A97C50" stroke="#A97C50" stroke-width="0.5" stroke-miterlimit="10"/>
<path d="M197.59 17.2865C197.59 17.2865 194.193 13.1038 185.588 12.6736C176.983 12.2433 177.977 16.2058 172.762 14.2646C172.762 14.2646 173.508 17.7267 177.48 16.9362C177.48 16.9362 175.739 19.4578 172.677 20.3283C169.065 21.349 167.631 18.9575 167.461 18.167C167.298 17.3765 168.207 16.3659 168.868 16.506C169.529 16.646 170.112 17.4466 170.439 17.1564C170.766 16.8662 170.439 15.8555 169.444 15.4953C168.449 15.1351 165.387 15.6354 165.721 18.7373C166.054 21.8392 169.778 23.5003 173.58 22.0494C177.388 20.6085 181.688 16.6461 185.66 15.7055C189.632 14.7749 194.514 15.2752 197.577 17.2964L197.59 17.2865Z" fill="#A97C50" stroke="#A97C50" stroke-width="0.5" stroke-miterlimit="10"/>
<path d="M210.992 33.8566C210.992 32.5057 209.736 31.415 208.191 31.415C206.647 31.415 205.391 32.5057 205.391 33.8566C205.391 35.2074 206.641 36.2981 208.191 36.2981C209.742 36.2981 210.992 35.2074 210.992 33.8566Z" fill="#A97C50" stroke="#A97C50" stroke-width="0.5" stroke-miterlimit="10"/>
<path d="M232.011 42.0817C232.011 41.2112 231.206 40.5107 230.205 40.5107C229.203 40.5107 228.398 41.2112 228.398 42.0817C228.398 42.9523 229.21 43.6527 230.205 43.6527C231.199 43.6527 232.011 42.9523 232.011 42.0817Z" fill="#A97C50" stroke="#A97C50" stroke-width="0.5" stroke-miterlimit="10"/>
<path d="M235.238 29.7538C235.238 27.7726 233.392 26.1616 231.115 26.1616C228.838 26.1616 226.992 27.7726 226.992 29.7538C226.992 31.735 228.838 33.3461 231.115 33.3461C233.392 33.3461 235.238 31.735 235.238 29.7538Z" fill="#A97C50" stroke="#A97C50" stroke-width="0.5" stroke-miterlimit="10"/>
<path d="M208.098 34.507C206.664 34.7772 207.149 36.5483 208.582 36.2681C210.61 35.8779 211.592 33.9967 210.715 32.5859C209.668 30.9048 207.214 30.0243 205.1 30.6547C200.369 32.0555 198.125 36.9886 200.611 40.8109C203.248 44.8634 209.262 45.4538 213.483 43.0924C217.39 40.901 219.7 38.0092 223.842 34.7672C226.702 32.5258 229.869 30.7747 229.869 30.7747C229.869 30.7747 225.707 31.8154 218.476 37.5689C215.61 39.8503 211.952 42.6421 207.744 42.472C204.178 42.3219 200.775 39.3901 201.992 36.068C202.529 34.6071 203.877 32.9561 205.689 32.5758C206.501 32.4057 207.6 32.3858 208.228 32.9761C208.817 33.5165 209.158 34.3169 208.078 34.5171L208.098 34.507Z" fill="#A97C50" stroke="#A97C50" stroke-width="0.5" stroke-miterlimit="10"/>
<path d="M225.481 31.6252C225.481 31.6252 219.939 34.0067 215.633 30.7546C215.633 30.7546 215.744 34.0467 219.605 34.507C222.668 34.8672 225.481 31.6252 225.481 31.6252Z" fill="#A97C50" stroke="#A97C50" stroke-width="0.5" stroke-miterlimit="10"/>
<path d="M201.648 41.9315C201.648 41.9315 205.038 46.1141 213.65 46.5443C222.255 46.9746 221.267 43.0121 226.476 44.9633C226.476 44.9633 225.73 41.5012 221.758 42.3017C221.758 42.3017 223.499 39.7802 226.555 38.9096C230.167 37.889 231.607 40.2804 231.77 41.0709C231.934 41.8614 231.024 42.8721 230.363 42.732C229.702 42.5919 229.12 41.7914 228.793 42.0816C228.459 42.3717 228.793 43.3824 229.787 43.7426C230.782 44.1028 233.845 43.6025 233.511 40.5006C233.184 37.3986 229.454 35.7376 225.652 37.1885C221.843 38.6294 217.537 42.5919 213.565 43.5325C209.593 44.4731 204.711 43.9627 201.648 41.9415V41.9315Z" fill="#A97C50" stroke="#A97C50" stroke-width="0.5" stroke-miterlimit="10"/>
<path d="M208.191 22.9199C206.647 22.9199 205.391 24.0105 205.391 25.3614C205.391 26.7122 206.641 27.8029 208.191 27.8029C209.742 27.8029 210.992 26.7122 210.992 25.3614C210.992 24.0105 209.736 22.9199 208.191 22.9199Z" fill="#A97C50" stroke="#A97C50" stroke-width="0.5" stroke-miterlimit="10"/>
<path d="M230.205 15.5652C229.203 15.5652 228.398 16.2656 228.398 17.1362C228.398 18.0067 229.21 18.7071 230.205 18.7071C231.199 18.7071 232.011 18.0067 232.011 17.1362C232.011 16.2656 231.206 15.5652 230.205 15.5652Z" fill="#A97C50" stroke="#A97C50" stroke-width="0.5" stroke-miterlimit="10"/>
<path d="M208.098 24.7108C209.177 24.921 208.837 25.7114 208.248 26.2518C207.62 26.8321 206.514 26.8122 205.709 26.6521C203.89 26.2718 202.542 24.6208 202.012 23.1599C200.794 19.8478 204.197 16.906 207.764 16.7559C211.972 16.5858 215.623 19.3776 218.496 21.659C225.727 27.4125 229.889 28.4532 229.889 28.4532C229.889 28.4532 226.722 26.7021 223.862 24.4607C219.726 21.2087 217.41 18.3269 213.503 16.1255C209.275 13.754 203.268 14.3544 200.631 18.407C198.138 22.2393 200.382 27.1723 205.12 28.5632C207.234 29.1936 209.688 28.3131 210.735 26.632C211.605 25.2211 210.624 23.34 208.601 22.9497C207.168 22.6796 206.684 24.4407 208.117 24.7108H208.098Z" fill="#A97C50" stroke="#A97C50" stroke-width="0.5" stroke-miterlimit="10"/>
<path d="M219.605 24.711C215.744 25.1613 215.633 28.4634 215.633 28.4634C219.939 25.2214 225.481 27.6028 225.481 27.6028C225.481 27.6028 222.668 24.3608 219.605 24.7211V24.711Z" fill="#A97C50" stroke="#A97C50" stroke-width="0.5" stroke-miterlimit="10"/>
<path d="M213.565 15.6953C217.537 16.6359 221.843 20.5984 225.652 22.0393C229.46 23.4802 233.184 21.8292 233.511 18.7272C233.845 15.6253 230.782 15.1249 229.787 15.4852C228.793 15.8454 228.466 16.8561 228.793 17.1462C229.12 17.4364 229.702 16.6459 230.363 16.4958C231.024 16.3557 231.934 17.3564 231.77 18.1569C231.607 18.9474 230.167 21.3388 226.555 20.3182C223.492 19.4576 221.758 16.9261 221.758 16.9261C225.73 17.7166 226.476 14.2544 226.476 14.2544C221.261 16.2056 222.255 12.2332 213.65 12.6635C205.045 13.0937 201.648 17.2763 201.648 17.2763C204.711 15.2551 209.593 14.7547 213.565 15.6853V15.6953Z" fill="#A97C50" stroke="#A97C50" stroke-width="0.5" stroke-miterlimit="10"/>
</svg>
